<svg xmlns="http://www.w3.org/2000/svg" viewBox="0 0 256 256" role="img" aria-label="brush">
  <defs>
    <linearGradient id="hubGrad" x1="0" y1="0" x2="1" y2="1">
      <stop offset="0%" stop-color="#ffe3a6"/>
      <stop offset="100%" stop-color="#f3b04f"/>
    </linearGradient>
    <linearGradient id="steelGrad" x1="0" y1="0" x2="0" y2="1">
      <stop offset="0%" stop-color="#edf3fb"/>
      <stop offset="100%" stop-color="#a4b4c8"/>
    </linearGradient>
  </defs>
  <g transform="translate(128 128)">
    <circle r="45" fill="url(#hubGrad)"/>
    <circle r="16" fill="#f9efcf"/>
    <g fill="#6f451f">
      <rect x="42" y="-4" width="58" height="8" rx="3"/>
      <rect x="42" y="-4" width="58" height="8" rx="3" transform="rotate(45)"/>
      <rect x="42" y="-4" width="58" height="8" rx="3" transform="rotate(90)"/>
      <rect x="42" y="-4" width="58" height="8" rx="3" transform="rotate(135)"/>
      <rect x="42" y="-4" width="58" height="8" rx="3" transform="rotate(180)"/>
      <rect x="42" y="-4" width="58" height="8" rx="3" transform="rotate(225)"/>
      <rect x="42" y="-4" width="58" height="8" rx="3" transform="rotate(270)"/>
      <rect x="42" y="-4" width="58" height="8" rx="3" transform="rotate(315)"/>
    </g>
    <rect x="-10" y="48" width="20" height="70" rx="8" fill="url(#steelGrad)"/>
  </g>
</svg>
